<?xml version="1.0" encoding="UTF-8" standalone="no"?>
<!-- This is a Stata 17.0 generated SVG file (http://www.stata.com) -->

<svg version="1.1" width="5.500in" height="4.000in" viewBox="0 0 3960 2880" xmlns="http://www.w3.org/2000/svg" xmlns:xlink="http://www.w3.org/1999/xlink">
	<desc>Stata Graph - Graph</desc>
	<rect x="0" y="0" width="3960" height="2880" style="fill:#FFFFFF;stroke:none"/>
	<rect x="0.00" y="0.00" width="3959.88" height="2880.00" style="fill:#D0D0D0"/>
	<rect x="2.88" y="2.88" width="3954.12" height="2874.24" style="fill:none;stroke:#FFFFFF;stroke-width:5.76"/>
	<rect x="390.80" y="419.90" width="3468.22" height="2073.74" style="fill:#C10534"/>
	<rect x="393.68" y="422.78" width="3462.46" height="2067.98" style="fill:none;stroke:#000000;stroke-width:5.76"/>
	<rect x="491.54" y="520.76" width="3266.75" height="1872.15" style="fill:#ADD8E6"/>
	<rect x="494.41" y="523.64" width="3260.99" height="1866.39" style="fill:none;stroke:#ADD8E6;stroke-width:5.76"/>
	<line x1="390.80" y1="2392.90" x2="3859.02" y2="2392.90" style="stroke:#E0E0E0;stroke-width:8.64"/>
	<line x1="390.80" y1="1788.99" x2="3859.02" y2="1788.99" style="stroke:#E0E0E0;stroke-width:8.64"/>
	<line x1="390.80" y1="1185.07" x2="3859.02" y2="1185.07" style="stroke:#E0E0E0;stroke-width:8.64"/>
	<line x1="390.80" y1="581.15" x2="3859.02" y2="581.15" style="stroke:#E0E0E0;stroke-width:8.64"/>
	<rect x="730.87" y="1668.20" width="1196.66" height="332.16" style="fill:#80B080"/>
	<rect x="735.19" y="1672.52" width="1188.02" height="323.52" style="fill:none;stroke:#006000;stroke-width:8.64"/>
	<line x1="730.87" y1="1849.38" x2="1927.53" y2="1849.38" style="stroke:#006000;stroke-width:8.64"/>
	<line x1="1329.20" y1="2000.36" x2="1329.20" y2="2272.12" style="stroke:#006000;stroke-width:8.64"/>
	<line x1="1329.20" y1="1668.20" x2="1329.20" y2="1185.07" style="stroke:#006000;stroke-width:8.64"/>
	<line x1="928.37" y1="2272.12" x2="1730.03" y2="2272.12" style="stroke:#006000;stroke-width:8.64"/>
	<line x1="928.37" y1="1185.07" x2="1730.03" y2="1185.07" style="stroke:#006000;stroke-width:8.64"/>
	<rect x="2322.42" y="1305.85" width="1196.54" height="422.74" style="fill:#FFA280"/>
	<rect x="2326.74" y="1310.17" width="1187.90" height="414.10" style="fill:none;stroke:#FF4500;stroke-width:8.64"/>
	<line x1="2322.42" y1="1517.22" x2="3518.96" y2="1517.22" style="stroke:#FF4500;stroke-width:8.64"/>
	<line x1="2920.62" y1="1728.59" x2="2920.62" y2="2151.34" style="stroke:#FF4500;stroke-width:8.64"/>
	<line x1="2920.62" y1="1305.85" x2="2920.62" y2="883.11" style="stroke:#FF4500;stroke-width:8.64"/>
	<line x1="2519.80" y1="2151.34" x2="3321.57" y2="2151.34" style="stroke:#FF4500;stroke-width:8.64"/>
	<line x1="2519.80" y1="883.11" x2="3321.57" y2="883.11" style="stroke:#FF4500;stroke-width:8.64"/>
	<circle cx="1329.20" cy="943.50" r="26.35" style="fill:#006000"/>
	<circle cx="1329.20" cy="943.50" r="22.03" style="fill:none;stroke:#006000;stroke-width:8.64"/>
	<circle cx="2920.62" cy="520.76" r="26.35" style="fill:#FF4500"/>
	<circle cx="2920.62" cy="520.76" r="22.03" style="fill:none;stroke:#FF4500;stroke-width:8.64"/>
	<line x1="390.80" y1="2493.64" x2="390.80" y2="419.90" style="stroke:#000000;stroke-width:5.76"/>
	<line x1="390.80" y1="2392.90" x2="350.83" y2="2392.90" style="stroke:#000000;stroke-width:5.76"/>
	<text x="300.72" y="2392.90" style="font-family:'Helvetica';font-size:99.99px;fill:#000000" transform="rotate(-90 300.72,2392.90)" text-anchor="middle">10</text>
	<line x1="390.80" y1="1788.99" x2="350.83" y2="1788.99" style="stroke:#000000;stroke-width:5.76"/>
	<text x="300.72" y="1788.99" style="font-family:'Helvetica';font-size:99.99px;fill:#000000" transform="rotate(-90 300.72,1788.99)" text-anchor="middle">20</text>
	<line x1="390.80" y1="1185.07" x2="350.83" y2="1185.07" style="stroke:#000000;stroke-width:5.76"/>
	<text x="300.72" y="1185.07" style="font-family:'Helvetica';font-size:99.99px;fill:#000000" transform="rotate(-90 300.72,1185.07)" text-anchor="middle">30</text>
	<line x1="390.80" y1="581.15" x2="350.83" y2="581.15" style="stroke:#000000;stroke-width:5.76"/>
	<text x="300.72" y="581.15" style="font-family:'Helvetica';font-size:99.99px;fill:#000000" transform="rotate(-90 300.72,581.15)" text-anchor="middle">40</text>
	<text x="190.71" y="1456.83" style="font-family:'Helvetica';font-size:99.99px;fill:#000000" transform="rotate(-90 190.71,1456.83)" text-anchor="middle">Mileage (mpg)</text>
	<line x1="390.80" y1="2493.64" x2="3859.02" y2="2493.64" style="stroke:#000000;stroke-width:5.76"/>
	<text x="2124.91" y="369.63" style="font-family:'Helvetica';font-size:110.01px;fill:#000000" text-anchor="middle">There are two groups in this graph.</text>
	<text x="2124.91" y="215.98" style="font-family:'Helvetica';font-size:139.96px;fill:#000000" text-anchor="middle">A Simple Box Plot</text>
	<rect x="1183.67" y="2558.24" width="1882.61" height="186.37" style="fill:#FFFFFF"/>
	<rect x="1186.55" y="2561.12" width="1876.85" height="180.61" style="fill:none;stroke:#000000;stroke-width:5.76"/>
	<rect x="1226.86" y="2601.43" width="374.34" height="99.99" style="fill:#80B080"/>
	<rect x="1231.18" y="2605.75" width="365.70" height="91.35" style="fill:none;stroke:#006000;stroke-width:8.64"/>
	<rect x="2238.64" y="2601.43" width="374.47" height="99.99" style="fill:#FFA280"/>
	<rect x="2242.96" y="2605.75" width="365.83" height="91.35" style="fill:none;stroke:#FF4500;stroke-width:8.64"/>
	<text x="1661.22" y="2686.46" style="font-family:'Helvetica';font-size:99.99px;fill:#000000">Domestic</text>
	<text x="2673.00" y="2686.46" style="font-family:'Helvetica';font-size:99.99px;fill:#000000">Foreign</text>
</svg>
